<svg width="24" height="24" viewBox="0 0 24 24" fill="none" xmlns="http://www.w3.org/2000/svg">
<rect width="24" height="24" rx="6" fill="#6A4EE1"/>
<g clip-path="url(#clip0_36203_372)">
<path opacity="0.8" d="M6.07275 12.4641C6.17118 12.6398 6.35868 12.75 6.56259 12.75H8.77743C9.23447 11.7305 9.98681 10.1227 10.6548 9.04688H8.76103C8.1704 9.04688 7.62431 9.35391 7.31962 9.85781L6.08212 11.8945C5.97665 12.068 5.97196 12.2859 6.07275 12.4617V12.4641ZM11.2501 15.1828V17.4375C11.2501 17.6414 11.3602 17.8289 11.536 17.9273C11.6227 17.9766 11.7165 18 11.8126 18C11.9134 18 12.0142 17.9719 12.1056 17.918L14.1423 16.6805C14.6462 16.3734 14.9532 15.8273 14.9532 15.2391V13.3453C13.8845 14.0063 12.2813 14.7375 11.2501 15.1828Z" fill="white"/>
<path d="M9.90231 15.253L8.71403 14.0648C8.4984 13.8491 8.43512 13.5257 8.557 13.2468C8.9859 12.2648 10.0265 9.96085 10.8562 8.73507C12.7757 5.90382 15.6351 5.81007 17.3414 6.12413C17.6132 6.17335 17.8242 6.38663 17.8757 6.65851C18.1898 8.3671 18.0937 11.2241 15.2648 13.1437C14.0297 13.9804 11.6953 14.9976 10.7109 15.4148C10.4343 15.5319 10.1156 15.4663 9.90231 15.253ZM15 9.93742C15.2486 9.93742 15.4871 9.83864 15.6629 9.66283C15.8387 9.48701 15.9375 9.24856 15.9375 8.99992C15.9375 8.75128 15.8387 8.51282 15.6629 8.337C15.4871 8.16119 15.2486 8.06242 15 8.06242C14.7513 8.06242 14.5129 8.16119 14.3371 8.337C14.1612 8.51282 14.0625 8.75128 14.0625 8.99992C14.0625 9.24856 14.1612 9.48701 14.3371 9.66283C14.5129 9.83864 14.7513 9.93742 15 9.93742Z" fill="#AB9CEE"/>
</g>
<defs>
<clipPath id="clip0_36203_372">
<rect width="12" height="12" fill="white" transform="translate(6 6)"/>
</clipPath>
</defs>
</svg>
