<svg width="24" height="24" viewBox="0 0 24 24" fill="none" xmlns="http://www.w3.org/2000/svg">
<rect width="24" height="24" rx="6" fill="#6A4EE1"/>
<g clip-path="url(#clip0_36203_367)">
<path opacity="0.8" d="M10.5 12C10.5 12.3978 10.658 12.7794 10.9393 13.0607C11.2206 13.342 11.6022 13.5 12 13.5C12.3978 13.5 12.7794 13.342 13.0607 13.0607C13.342 12.7794 13.5 12.3978 13.5 12C13.5 11.6022 13.342 11.2206 13.0607 10.9393C12.7794 10.658 12.3978 10.5 12 10.5C11.6022 10.5 11.2206 10.658 10.9393 10.9393C10.658 11.2206 10.5 11.6022 10.5 12Z" fill="white"/>
<path d="M17.4751 10.4813C17.6368 10.3359 17.7001 10.1086 17.6251 9.90469C17.522 9.62578 17.3978 9.35859 17.2548 9.10078L17.1446 8.91094C16.9899 8.65313 16.8165 8.40938 16.6267 8.17969C16.4884 8.01094 16.2587 7.95469 16.0524 8.02031L14.747 8.43516C14.4329 8.19375 14.086 7.99219 13.7157 7.8375L13.4228 6.49922C13.3759 6.28594 13.2118 6.11719 12.9962 6.08203C12.6728 6.02813 12.3399 6 12.0001 6C11.6603 6 11.3274 6.02813 11.004 6.08203C10.7884 6.11719 10.6243 6.28594 10.5774 6.49922L10.2845 7.8375C9.91417 7.98984 9.56729 8.19141 9.25323 8.43281L7.94776 8.01797C7.74151 7.95234 7.51182 8.01094 7.37354 8.17734C7.1837 8.40703 7.01026 8.65078 6.85557 8.90859L6.74542 9.09844C6.60245 9.35625 6.47823 9.62344 6.3751 9.90234C6.3001 10.1063 6.36338 10.3336 6.5251 10.4789L7.53995 11.4023C7.51417 11.5992 7.5001 11.7984 7.5001 12C7.5001 12.2016 7.51417 12.4008 7.53995 12.5953L6.5251 13.5188C6.36338 13.6641 6.3001 13.8914 6.3751 14.0953C6.47823 14.3742 6.60245 14.6414 6.74542 14.8992L6.85557 15.0891C7.01026 15.3469 7.1837 15.5906 7.37354 15.8203C7.51182 15.9891 7.74151 16.0453 7.94776 15.9797L9.25323 15.5648C9.56729 15.8063 9.91417 16.0078 10.2845 16.1602L10.5774 17.4984C10.6243 17.7117 10.7884 17.8805 11.004 17.9156C11.3274 17.9695 11.6603 17.9977 12.0001 17.9977C12.3399 17.9977 12.6728 17.9695 12.9962 17.9156C13.2118 17.8805 13.3759 17.7117 13.4228 17.4984L13.7157 16.1602C14.086 16.0078 14.4329 15.8063 14.747 15.5648L16.0524 15.9797C16.2587 16.0453 16.4884 15.9867 16.6267 15.8203C16.8165 15.5906 16.9899 15.3469 17.1446 15.0891L17.2548 14.8992C17.3978 14.6414 17.522 14.3742 17.6251 14.0953C17.7001 13.8914 17.6368 13.6641 17.4751 13.5188L16.4603 12.5953C16.486 12.4008 16.5001 12.2016 16.5001 12C16.5001 11.7984 16.486 11.5992 16.4603 11.4047L17.4751 10.4813ZM12.0001 9.75C12.5968 9.75 13.1691 9.98705 13.5911 10.409C14.0131 10.831 14.2501 11.4033 14.2501 12C14.2501 12.5967 14.0131 13.169 13.5911 13.591C13.1691 14.0129 12.5968 14.25 12.0001 14.25C11.4034 14.25 10.8311 14.0129 10.4091 13.591C9.98716 13.169 9.7501 12.5967 9.7501 12C9.7501 11.4033 9.98716 10.831 10.4091 10.409C10.8311 9.98705 11.4034 9.75 12.0001 9.75Z" fill="#AB9CEE"/>
</g>
<defs>
<clipPath id="clip0_36203_367">
<rect width="12" height="12" fill="white" transform="translate(6 6)"/>
</clipPath>
</defs>
</svg>
