<svg width="24" height="24" viewBox="0 0 24 24" fill="none" xmlns="http://www.w3.org/2000/svg">
<rect width="24" height="24" rx="6" fill="#6A4EE1"/>
<g clip-path="url(#clip0_36203_368)">
<path opacity="0.8" d="M13.8667 11.3646L14.9022 9.66738C14.9903 9.52559 15.145 9.4375 15.3126 9.4375C15.4802 9.4375 15.6349 9.52559 15.7229 9.66738L18.5589 14.3145C18.6835 14.5207 18.7501 14.757 18.7501 14.9977C18.7501 15.7238 18.1614 16.3104 17.4374 16.3104H14.7991C15.463 16.3104 16.0001 15.7732 16.0001 15.1094C16.0001 14.8838 15.9356 14.6625 15.8153 14.4713C15.1644 13.4357 14.5155 12.4002 13.8667 11.3646Z" fill="white"/>
<path d="M6.20098 16.3125H14.799C15.4629 16.3125 16 15.7754 16 15.1115C16 14.8859 15.9355 14.6646 15.8152 14.4734L11.1617 7.05273C11.0199 6.825 10.7686 6.6875 10.5 6.6875C10.2314 6.6875 9.98223 6.825 9.83828 7.05273L5.18477 14.4734C5.06445 14.6646 5 14.8859 5 15.1115C5 15.7754 5.53711 16.3125 6.20098 16.3125Z" fill="#AB9CEE"/>
</g>
<defs>
<clipPath id="clip0_36203_368">
<rect width="13.75" height="11" fill="white" transform="translate(5 6)"/>
</clipPath>
</defs>
</svg>
